# xmcd
#
# Track frame offsets:
#	150
#	19210
#	40205
#	60356
#	80139
#	102473
#	126716
#	145724
#	172424
#	196874
#	215955
#	236419
#	258499
#
# Disc length: 3697 seconds
#
# Revision: 0
# Processed by: cddbd v1.5.2PL0 Copyright (c) Steve Scherf et al.
# Submitted via: EasyCDDAExtractor 2011.3.0.0
#
DISCID=c90e6f0d
DTITLE=侃侃 - 清音流韵 DTS ES
DYEAR=2012
DGENRE=DTS ES
TTITLE0=滴答
TTITLE1=那江烟花
TTITLE2=把爱深藏
TTITLE3=爱情啊
TTITLE4=想念
TTITLE5=隔世离空的红颜
TTITLE6=飘摇
TTITLE7=寂静的天空
TTITLE8=细说往事
TTITLE9=老家
TTITLE10=橄榄树
TTITLE11=雪莲花
TTITLE12=滴答(特别海外珍藏音乐编曲版)
EXTD=
EXTT0=
EXTT1=
EXTT2=
EXTT3=
EXTT4=
EXTT5=
EXTT6=
EXTT7=
EXTT8=
EXTT9=
EXTT10=
EXTT11=
EXTT12=
PLAYORDER=
